<svg width="213" height="32" viewBox="0 0 213 32" fill="none" xmlns="http://www.w3.org/2000/svg">
<mask id="mask0_19_2855" style="mask-type:luminance" maskUnits="userSpaceOnUse" x="0" y="0" width="69" height="32">
<path d="M0 15.6928L34.2949 31.3856L68.5835 15.6928L34.2949 0L0 15.6928Z" fill="white"></path>
</mask>
<g mask="url(#mask0_19_2855)">
<path d="M34.2949 53.5488L33.96 24.8896H34.6363L34.2949 53.5488Z" fill="white"></path>
<path d="M24.593 52.256L31.5645 24.4736L32.304 24.672L24.593 52.256Z" fill="white"></path>
<path d="M15.5737 48.4672L29.3334 23.4112L30.1551 23.8912L15.5737 48.4672Z" fill="white"></path>
<path d="M7.83105 42.4448L27.4625 21.7792L28.2652 22.5984L7.83105 42.4448Z" fill="white"></path>
<path d="M1.89624 34.5984L26.091 19.6992L26.7547 20.8704L1.89624 34.5984Z" fill="white"></path>
<path d="M-1.83276 25.4656L25.2947 17.2224L25.7372 18.8992L-1.83276 25.4656Z" fill="white"></path>
<path d="M-3.10327 15.6672L25.2061 14.72V16.6464L-3.10327 15.6672Z" fill="white"></path>
<path d="M-3.0022 15.6928L25.2061 14.72V16.6464L-3.0022 15.6928Z" fill="white"></path>
<path d="M-1.82031 5.86241L25.7433 12.4608L25.2945 14.1376L-1.82031 5.86241Z" fill="white"></path>
<path d="M1.91528 -3.26399L26.7611 10.5024L26.0911 11.6672L1.91528 -3.26399Z" fill="white"></path>
<path d="M7.86914 -11.104L28.278 8.768L27.4689 9.5872L7.86914 -11.104Z" fill="white"></path>
<path d="M15.6116 -17.1136L30.1676 7.47521L29.3396 7.96161L15.6116 -17.1136Z" fill="white"></path>
<path d="M24.6372 -20.896L32.3166 6.70081L31.5771 6.89921L24.6372 -20.896Z" fill="white"></path>
<path d="M34.2949 -22.1376L34.6363 6.4896H33.96L34.2949 -22.1376Z" fill="white"></path>
<path d="M43.9905 -20.8832L37.019 6.90561L36.2795 6.70081L43.9905 -20.8832Z" fill="white"></path>
<path d="M53.0098 -17.0941L39.2501 7.96825L38.4285 7.48185L53.0098 -17.0941Z" fill="white"></path>
<path d="M60.7525 -11.072L41.1211 9.59361L40.3184 8.78081L60.7525 -11.072Z" fill="white"></path>
<path d="M66.6875 -3.2256L42.4928 11.68L41.8291 10.5088L66.6875 -3.2256Z" fill="white"></path>
<path d="M70.4166 5.91362L43.2891 14.1504L42.8467 12.4736L70.4166 5.91362Z" fill="white"></path>
<path d="M71.5288 15.6928L43.3774 16.6592V14.7328L71.5288 15.6928Z" fill="white"></path>
<path d="M70.4103 25.5102L42.8467 18.9118L43.2891 17.235L70.4103 25.5102Z" fill="white"></path>
<path d="M66.6685 34.6432L41.8228 20.8768L42.4927 19.7056L66.6685 34.6432Z" fill="white"></path>
<path d="M60.7208 42.4768L40.3057 22.6048L41.1147 21.7856L60.7208 42.4768Z" fill="white"></path>
<path d="M52.9721 48.4928L38.416 23.8976L39.244 23.4176L52.9721 48.4928Z" fill="white"></path>
<path d="M43.9465 52.2688L36.2671 24.672L37.0066 24.4736L43.9465 52.2688Z" fill="white"></path>
</g>
<path d="M97.1013 18.816C97.1013 21.9264 94.1433 22.5472 89.6811 22.5472H81.376V8.83841H89.5231C93.663 8.83841 96.2101 9.55521 96.2101 12.3904C96.2101 14.1184 95.0029 14.9696 92.9551 15.3408C95.7108 15.7312 97.095 16.768 97.095 18.8224M86.3818 14.368H89.5231C90.6355 14.368 91.1853 13.8176 91.1853 12.8704V12.3648C91.1853 11.3984 90.5912 10.8672 89.5231 10.8672H86.3818V14.368ZM91.7542 18.1248C91.7542 16.9728 91.0273 16.3968 89.6811 16.3968H86.3818V20.5184H89.6811C90.9578 20.5184 91.7542 20.0576 91.7542 18.8352V18.1184V18.1248Z" fill="white"></path>
<path d="M110.431 22.5472L107.745 17.0176H105.539V22.5472H100.533V8.83841H108.839C113.547 8.83841 116.259 9.48481 116.259 12.6848C116.259 14.7136 115.21 15.9104 113.206 16.512L116.714 22.5472H110.431ZM105.539 14.9888H108.839C110.02 14.9888 110.912 14.528 110.912 13.2608V12.544C110.912 11.3216 110.115 10.8608 108.839 10.8608H105.539V14.9824V14.9888Z" fill="white"></path>
<path d="M133.463 8.83841V22.5472H132.167L121.859 10.3808V22.5472H120.67V8.83841H123.995L132.256 18.6112V8.83841H133.463Z" fill="white"></path>
<path d="M148.866 19.5968H140.289L138.741 22.5472H137.464L144.632 8.83841H146.199L153.366 22.5472H150.408L148.86 19.5968H148.866ZM148.342 18.56L144.562 11.3472L140.808 18.56H148.342Z" fill="white"></path>
<path d="M161.905 9.87521V22.5472H159.289V9.87521H153.486L153.941 8.83841H167.233L167.688 9.87521H161.905Z" fill="white"></path>
<path d="M174.357 8.83841H171.715V22.5472H174.357V8.83841Z" fill="white"></path>
<path d="M178.996 15.68C178.996 11.1424 182.662 8.60802 186.846 8.60802C191.03 8.60802 194.696 11.1424 194.696 15.68C194.696 20.2176 191.03 22.7776 186.846 22.7776C182.662 22.7776 178.996 20.2176 178.996 15.68ZM191.605 17.2928V14.0864C191.605 10.8608 189.76 9.63842 186.852 9.63842C183.945 9.63842 182.099 10.8608 182.099 14.0864V17.2928C182.099 20.5184 183.964 21.7408 186.852 21.7408C189.741 21.7408 191.605 20.5184 191.605 17.2928Z" fill="white"></path>
<path d="M212.128 8.83841V22.5472H210.832L200.523 10.3808V22.5472H199.341V8.83841H202.66L210.92 18.6112V8.83841H212.128Z" fill="white"></path>
</svg>